<mxfile host="app.diagrams.net" modified="2024-04-04T08:56:35.384Z" agent="Mozilla/5.0 (X11; Linux x86_64) AppleWebKit/537.36 (KHTML, like Gecko) Chrome/120.0.0.0 YaBrowser/24.1.0.0 Safari/537.36" etag="Lfylt806i1MwIHzTQoQp" version="24.2.2" type="google">
  <diagram name="Page-1" id="2YBvvXClWsGukQMizWep">
    <mxGraphModel grid="1" page="1" gridSize="10" guides="1" tooltips="1" connect="1" arrows="1" fold="1" pageScale="1" pageWidth="850" pageHeight="1100" math="0" shadow="0">
      <root>
        <mxCell id="0" />
        <mxCell id="1" parent="0" />
        <mxCell id="t1pneiZkC04BnzABo6mJ-1" value=":User" style="shape=umlLifeline;perimeter=lifelinePerimeter;whiteSpace=wrap;html=1;container=0;dropTarget=0;collapsible=0;recursiveResize=0;outlineConnect=0;portConstraint=eastwest;newEdgeStyle={&quot;edgeStyle&quot;:&quot;elbowEdgeStyle&quot;,&quot;elbow&quot;:&quot;vertical&quot;,&quot;curved&quot;:0,&quot;rounded&quot;:0};" vertex="1" parent="1">
          <mxGeometry x="150" y="280" width="80" height="400" as="geometry" />
        </mxCell>
        <mxCell id="t1pneiZkC04BnzABo6mJ-2" value="" style="html=1;points=[];perimeter=orthogonalPerimeter;outlineConnect=0;targetShapes=umlLifeline;portConstraint=eastwest;newEdgeStyle={&quot;edgeStyle&quot;:&quot;elbowEdgeStyle&quot;,&quot;elbow&quot;:&quot;vertical&quot;,&quot;curved&quot;:0,&quot;rounded&quot;:0};" vertex="1" parent="t1pneiZkC04BnzABo6mJ-1">
          <mxGeometry x="35" y="70" width="10" height="280" as="geometry" />
        </mxCell>
        <mxCell id="t1pneiZkC04BnzABo6mJ-3" value=":Super CLass" style="shape=umlLifeline;perimeter=lifelinePerimeter;whiteSpace=wrap;html=1;container=0;dropTarget=0;collapsible=0;recursiveResize=0;outlineConnect=0;portConstraint=eastwest;newEdgeStyle={&quot;edgeStyle&quot;:&quot;elbowEdgeStyle&quot;,&quot;elbow&quot;:&quot;vertical&quot;,&quot;curved&quot;:0,&quot;rounded&quot;:0};" vertex="1" parent="1">
          <mxGeometry x="260" y="280" width="80" height="400" as="geometry" />
        </mxCell>
        <mxCell id="t1pneiZkC04BnzABo6mJ-4" value="" style="html=1;points=[];perimeter=orthogonalPerimeter;outlineConnect=0;targetShapes=umlLifeline;portConstraint=eastwest;newEdgeStyle={&quot;edgeStyle&quot;:&quot;elbowEdgeStyle&quot;,&quot;elbow&quot;:&quot;vertical&quot;,&quot;curved&quot;:0,&quot;rounded&quot;:0};" vertex="1" parent="t1pneiZkC04BnzABo6mJ-3">
          <mxGeometry x="35" y="80" width="10" height="270" as="geometry" />
        </mxCell>
        <mxCell id="t1pneiZkC04BnzABo6mJ-5" value="image" style="html=1;verticalAlign=bottom;endArrow=block;edgeStyle=elbowEdgeStyle;elbow=vertical;curved=0;rounded=0;" edge="1" parent="1" source="t1pneiZkC04BnzABo6mJ-2" target="t1pneiZkC04BnzABo6mJ-4">
          <mxGeometry relative="1" as="geometry">
            <mxPoint x="255" y="370" as="sourcePoint" />
            <Array as="points">
              <mxPoint x="240" y="360" />
            </Array>
          </mxGeometry>
        </mxCell>
        <mxCell id="t1pneiZkC04BnzABo6mJ-6" value="return ImageList" style="html=1;verticalAlign=bottom;endArrow=open;dashed=1;endSize=8;edgeStyle=elbowEdgeStyle;elbow=vertical;curved=0;rounded=0;" edge="1" parent="1" source="t1pneiZkC04BnzABo6mJ-4" target="t1pneiZkC04BnzABo6mJ-2">
          <mxGeometry relative="1" as="geometry">
            <mxPoint x="255" y="445" as="targetPoint" />
            <Array as="points">
              <mxPoint x="250" y="630" />
            </Array>
          </mxGeometry>
        </mxCell>
        <mxCell id="t1pneiZkC04BnzABo6mJ-7" value=":CLIPWrapper" style="shape=umlLifeline;perimeter=lifelinePerimeter;whiteSpace=wrap;html=1;container=0;dropTarget=0;collapsible=0;recursiveResize=0;outlineConnect=0;portConstraint=eastwest;newEdgeStyle={&quot;edgeStyle&quot;:&quot;elbowEdgeStyle&quot;,&quot;elbow&quot;:&quot;vertical&quot;,&quot;curved&quot;:0,&quot;rounded&quot;:0};" vertex="1" parent="1">
          <mxGeometry x="425" y="280" width="80" height="400" as="geometry" />
        </mxCell>
        <mxCell id="t1pneiZkC04BnzABo6mJ-8" value="" style="html=1;points=[];perimeter=orthogonalPerimeter;outlineConnect=0;targetShapes=umlLifeline;portConstraint=eastwest;newEdgeStyle={&quot;edgeStyle&quot;:&quot;elbowEdgeStyle&quot;,&quot;elbow&quot;:&quot;vertical&quot;,&quot;curved&quot;:0,&quot;rounded&quot;:0};" vertex="1" parent="t1pneiZkC04BnzABo6mJ-7">
          <mxGeometry x="35" y="100" width="10" height="50" as="geometry" />
        </mxCell>
        <mxCell id="t1pneiZkC04BnzABo6mJ-9" value="encode_image(image)" style="html=1;verticalAlign=bottom;endArrow=block;edgeStyle=elbowEdgeStyle;elbow=vertical;curved=0;rounded=0;" edge="1" parent="1" source="t1pneiZkC04BnzABo6mJ-3" target="t1pneiZkC04BnzABo6mJ-8">
          <mxGeometry relative="1" as="geometry">
            <mxPoint x="320" y="380" as="sourcePoint" />
            <Array as="points">
              <mxPoint x="400" y="380" />
            </Array>
            <mxPoint x="470" y="380" as="targetPoint" />
          </mxGeometry>
        </mxCell>
        <mxCell id="t1pneiZkC04BnzABo6mJ-10" value="return image_emb" style="html=1;verticalAlign=bottom;endArrow=open;dashed=1;endSize=8;edgeStyle=elbowEdgeStyle;elbow=vertical;curved=0;rounded=0;" edge="1" parent="1" source="t1pneiZkC04BnzABo6mJ-8" target="t1pneiZkC04BnzABo6mJ-4">
          <mxGeometry relative="1" as="geometry">
            <mxPoint x="310" y="430" as="targetPoint" />
            <Array as="points">
              <mxPoint x="383" y="430" />
            </Array>
            <mxPoint x="419.5" y="429.87" as="sourcePoint" />
          </mxGeometry>
        </mxCell>
        <mxCell id="t1pneiZkC04BnzABo6mJ-11" value="&lt;span style=&quot;font-size: 12px; text-align: left; background-color: rgb(251, 251, 251);&quot;&gt;find_nearest_k(image_emb)&lt;/span&gt;" style="html=1;verticalAlign=bottom;endArrow=block;edgeStyle=elbowEdgeStyle;elbow=vertical;curved=0;rounded=0;" edge="1" parent="1" target="t1pneiZkC04BnzABo6mJ-12">
          <mxGeometry relative="1" as="geometry">
            <mxPoint x="302.61333333333334" y="460" as="sourcePoint" />
            <Array as="points">
              <mxPoint x="402.38" y="460" />
            </Array>
            <mxPoint x="537.38" y="460" as="targetPoint" />
          </mxGeometry>
        </mxCell>
        <mxCell id="t1pneiZkC04BnzABo6mJ-12" value=":ImageIndex" style="shape=umlLifeline;perimeter=lifelinePerimeter;whiteSpace=wrap;html=1;container=0;dropTarget=0;collapsible=0;recursiveResize=0;outlineConnect=0;portConstraint=eastwest;newEdgeStyle={&quot;edgeStyle&quot;:&quot;elbowEdgeStyle&quot;,&quot;elbow&quot;:&quot;vertical&quot;,&quot;curved&quot;:0,&quot;rounded&quot;:0};" vertex="1" parent="1">
          <mxGeometry x="545" y="280" width="80" height="400" as="geometry" />
        </mxCell>
        <mxCell id="t1pneiZkC04BnzABo6mJ-13" value="" style="html=1;points=[];perimeter=orthogonalPerimeter;outlineConnect=0;targetShapes=umlLifeline;portConstraint=eastwest;newEdgeStyle={&quot;edgeStyle&quot;:&quot;elbowEdgeStyle&quot;,&quot;elbow&quot;:&quot;vertical&quot;,&quot;curved&quot;:0,&quot;rounded&quot;:0};" vertex="1" parent="t1pneiZkC04BnzABo6mJ-12">
          <mxGeometry x="35" y="180" width="10" height="50" as="geometry" />
        </mxCell>
        <mxCell id="t1pneiZkC04BnzABo6mJ-14" value="return top_k_indexes" style="html=1;verticalAlign=bottom;endArrow=open;dashed=1;endSize=8;edgeStyle=elbowEdgeStyle;elbow=vertical;curved=0;rounded=0;" edge="1" parent="1" source="t1pneiZkC04BnzABo6mJ-12" target="t1pneiZkC04BnzABo6mJ-3">
          <mxGeometry relative="1" as="geometry">
            <mxPoint x="420" y="504.8399999999999" as="targetPoint" />
            <Array as="points">
              <mxPoint x="480" y="510" />
            </Array>
            <mxPoint x="510" y="500" as="sourcePoint" />
          </mxGeometry>
        </mxCell>
        <mxCell id="t1pneiZkC04BnzABo6mJ-15" value=":ImageDF" style="shape=umlLifeline;perimeter=lifelinePerimeter;whiteSpace=wrap;html=1;container=0;dropTarget=0;collapsible=0;recursiveResize=0;outlineConnect=0;portConstraint=eastwest;newEdgeStyle={&quot;edgeStyle&quot;:&quot;elbowEdgeStyle&quot;,&quot;elbow&quot;:&quot;vertical&quot;,&quot;curved&quot;:0,&quot;rounded&quot;:0};" vertex="1" parent="1">
          <mxGeometry x="665" y="280" width="80" height="400" as="geometry" />
        </mxCell>
        <mxCell id="t1pneiZkC04BnzABo6mJ-16" value="" style="html=1;points=[];perimeter=orthogonalPerimeter;outlineConnect=0;targetShapes=umlLifeline;portConstraint=eastwest;newEdgeStyle={&quot;edgeStyle&quot;:&quot;elbowEdgeStyle&quot;,&quot;elbow&quot;:&quot;vertical&quot;,&quot;curved&quot;:0,&quot;rounded&quot;:0};" vertex="1" parent="t1pneiZkC04BnzABo6mJ-15">
          <mxGeometry x="35" y="270" width="10" height="50" as="geometry" />
        </mxCell>
        <mxCell id="t1pneiZkC04BnzABo6mJ-17" value="&lt;span style=&quot;font-size: 12px; text-align: left; background-color: rgb(251, 251, 251);&quot;&gt;find_nearest_k(&lt;/span&gt;top_k_indexes&lt;span style=&quot;font-size: 12px; text-align: left; background-color: rgb(251, 251, 251);&quot;&gt;)&lt;/span&gt;" style="html=1;verticalAlign=bottom;endArrow=block;edgeStyle=elbowEdgeStyle;elbow=vertical;curved=0;rounded=0;" edge="1" parent="1" source="t1pneiZkC04BnzABo6mJ-3" target="t1pneiZkC04BnzABo6mJ-16">
          <mxGeometry relative="1" as="geometry">
            <mxPoint x="320.00333333333333" y="550" as="sourcePoint" />
            <Array as="points">
              <mxPoint x="419.77" y="550" />
            </Array>
            <mxPoint x="554.77" y="550" as="targetPoint" />
          </mxGeometry>
        </mxCell>
        <mxCell id="t1pneiZkC04BnzABo6mJ-18" value="return ImageList" style="html=1;verticalAlign=bottom;endArrow=open;dashed=1;endSize=8;edgeStyle=elbowEdgeStyle;elbow=vertical;curved=0;rounded=0;" edge="1" parent="1" source="t1pneiZkC04BnzABo6mJ-16" target="t1pneiZkC04BnzABo6mJ-3">
          <mxGeometry relative="1" as="geometry">
            <mxPoint x="400" y="600.16" as="targetPoint" />
            <Array as="points">
              <mxPoint x="575" y="600" />
            </Array>
            <mxPoint x="640" y="600.16" as="sourcePoint" />
          </mxGeometry>
        </mxCell>
      </root>
    </mxGraphModel>
  </diagram>
</mxfile>
